<svg xmlns="http://www.w3.org/2000/svg" viewBox="96 114 824 824"><path fill="#0195FF" fill-rule="evenodd" d="M 484 119 C 456 123 426 136 402 155 C 392 162 145 409 136 420 C 122 438 108 467 103 492 C 99 507 99 541 103 559 C 107 582 119 609 134 629 C 145 644 225 725 236 731 C 250 741 273 751 288 754 C 313 760 350 758 379 749 C 397 744 434 721 452 705 C 455 702 459 698 460 697 C 464 694 500 657 521 634 C 532 622 546 608 552 602 L 563 591 562 584 C 561 567 561 548 564 541 C 571 520 576 511 589 499 C 606 482 627 474 652 474 C 667 473 670 474 686 480 C 699 486 700 486 709 495 C 724 507 732 519 739 539 C 743 551 743 576 738 590 C 727 626 697 650 661 654 C 649 655 646 655 633 652 C 628 652 624 651 622 651 C 617 653 596 673 564 708 C 501 775 465 804 426 821 C 416 825 398 831 392 832 C 384 833 358 836 351 836 C 338 836 339 837 369 867 C 396 893 401 898 413 906 C 459 936 513 942 566 924 C 582 919 595 912 612 899 C 625 889 872 643 882 630 C 905 598 915 567 915 527 C 915 503 914 490 907 471 C 895 437 886 424 833 371 C 794 331 785 323 777 319 C 775 318 770 315 768 314 C 757 306 732 298 715 296 C 702 294 670 295 656 297 C 633 301 599 318 573 339 C 562 348 528 382 511 401 C 487 427 477 437 468 446 C 453 459 451 463 454 475 C 457 487 456 498 450 518 C 442 543 417 567 389 575 C 383 577 379 577 365 577 C 345 577 341 577 329 571 C 298 557 277 529 274 495 C 268 436 326 386 384 399 C 388 400 391 400 393 400 C 399 398 412 386 437 360 C 476 320 513 283 527 272 C 544 257 575 237 584 234 C 586 233 591 231 596 229 C 604 226 619 221 631 218 C 635 218 644 217 653 217 C 669 217 673 216 673 213 C 673 208 622 159 605 148 C 585 134 575 130 549 122 C 535 118 502 117 484 119 M 352 440 C 329 446 314 467 315 491 C 316 510 326 523 343 532 L 351 537 364 537 C 377 537 378 536 384 533 C 404 524 414 508 413 488 C 413 467 404 452 386 443 C 378 440 377 440 367 439 C 361 439 354 440 352 440 M 641 515 C 639 516 633 518 629 520 C 599 536 593 575 616 598 C 637 620 672 618 690 595 C 697 586 701 574 701 562 C 701 556 696 541 692 535 C 681 520 659 511 641 515"/></svg>
